<svg width="26" height="30" viewBox="0 0 26 30" fill="none" xmlns="http://www.w3.org/2000/svg">
<path d="M1.60336 12.668L0.0187662 26.668L2.0433 26.89L3.62789 12.888L1.60336 12.668ZM3.05556 30H22.9465V28H3.05556V30ZM25.9833 26.668L24.3987 12.668L22.3741 12.888L23.9587 26.89L25.9833 26.668ZM21.3598 10H4.64219V12H21.3639L21.3598 10ZM24.3987 12.668C24.3155 11.9343 23.9597 11.2565 23.3994 10.7642C22.8391 10.272 22.1116 9.9999 21.3598 10L21.3619 12C21.6126 12 21.8545 12.0908 22.0413 12.255C22.228 12.4192 22.3466 12.6453 22.3741 12.89L24.3987 12.668ZM22.9465 30C23.3761 29.9998 23.8008 29.9106 24.1929 29.7383C24.585 29.5659 24.9357 29.3144 25.2221 28.9999C25.5085 28.6855 25.7241 28.3153 25.8549 27.9135C25.9857 27.5116 26.0308 27.0873 25.9833 26.668L23.9587 26.89C23.9748 27.0299 23.9606 27.1696 23.917 27.3037C23.8735 27.4379 23.8016 27.5615 23.706 27.6664C23.6105 27.7714 23.4934 27.8554 23.3625 27.9129C23.2316 27.9703 23.0899 28 22.9465 28V30ZM0.0187662 26.668C-0.0287948 27.0874 0.0142951 27.512 0.145221 27.9139C0.276148 28.3159 0.491964 28.6862 0.778571 29.0007C1.06518 29.3151 1.41613 29.5667 1.80849 29.7389C2.20085 29.9111 2.62579 30.0001 3.05556 30V28C2.91237 28 2.77079 27.9704 2.64005 27.913C2.50931 27.8556 2.39237 27.7719 2.29684 27.6671C2.20132 27.5624 2.12936 27.439 2.08567 27.3051C2.04199 27.1712 2.02755 27.0298 2.0433 26.89L0.0187662 26.668ZM3.62789 12.888C3.65593 12.6437 3.77466 12.4181 3.96139 12.2542C4.14812 12.0904 4.3918 11.9999 4.64219 12V10C3.89074 10.0004 3.16375 10.2727 2.6039 10.7649C2.04404 11.2571 1.68652 11.9346 1.60336 12.668L3.62789 12.888ZM7.90914 8V7H5.87239V8H7.90914ZM18.0929 7V8H20.1296V7H18.0929ZM13.001 2C14.3515 2 15.6466 2.52678 16.6015 3.46447C17.5564 4.40215 18.0929 5.67392 18.0929 7H20.1296C20.1296 5.14348 19.3786 3.36301 18.0417 2.05025C16.7048 0.737498 14.8916 0 13.001 0V2ZM7.90914 7C7.90914 5.67392 8.4456 4.40215 9.40052 3.46447C10.3554 2.52678 11.6506 2 13.001 2V0C11.1104 0 9.29719 0.737498 7.96032 2.05025C6.62344 3.36301 5.87239 5.14348 5.87239 7H7.90914Z" fill="white" fill-opacity="0.75"/>
</svg>
