<svg width="60" height="60" viewBox="0 0 60 60" fill="none" xmlns="http://www.w3.org/2000/svg">
<g clip-path="url(#clip0_96_550)">
<path d="M57.65 38.3336L50.85 30.0002L57.5167 21.8336C57.8813 21.3868 58.111 20.8454 58.1789 20.2727C58.2468 19.7 58.1501 19.1199 57.9 18.6002C57.6467 18.0178 57.2266 17.5234 56.6927 17.1793C56.1588 16.8353 55.5351 16.657 54.9 16.6669H3.23333C2.81528 16.6603 2.40001 16.7361 2.01126 16.89C1.6225 17.0439 1.26787 17.2728 0.967619 17.5638C0.667366 17.8548 0.427373 18.202 0.261347 18.5858C0.0953211 18.9695 0.00651475 19.3822 0 19.8002L0 40.2169C0.0175179 41.0583 0.367502 41.8585 0.973416 42.4426C1.57933 43.0266 2.39187 43.347 3.23333 43.3336H55.0833C55.6971 43.3438 56.3011 43.1782 56.8238 42.8563C57.3465 42.5344 57.7662 42.0696 58.0333 41.5169C58.2732 41.0034 58.3644 40.4331 58.2966 39.8704C58.2289 39.3078 58.0049 38.7754 57.65 38.3336ZM3.33333 40.0002V20.0002H54.6333L46.5667 29.8836L54.75 40.0002H3.33333Z" fill="black"/>
<path d="M15.6499 32.25L10.2166 25H8.33325V35.3H10.2166V28.0667L15.6499 35.3H17.5166V25H15.6499V32.25Z" fill="black"/>
<path d="M20.3 35.3H28.0667V33.6H22.1834V30.9167H27.5001V29.2H22.1834V26.7167H28.0667V25H20.3V35.3Z" fill="black"/>
<path d="M40.8666 32.3833L38.4333 25H36.4L33.95 32.3833L31.75 25H29.7L32.9666 35.3H34.8166L37.4166 27.65L40 35.3H41.8833L45.1333 25H43.0833L40.8666 32.3833Z" fill="black"/>
</g>
<defs>
<clipPath id="clip0_96_550">
<rect width="60" height="60" fill="white"/>
</clipPath>
</defs>
</svg>
