<svg width="142" height="26" viewBox="0 0 142 26" fill="none" xmlns="http://www.w3.org/2000/svg">
<g clip-path="url(#clip0_33_68)">
<path d="M13.7192 1.74554L16.4014 7.86324C16.5023 8.09348 16.6632 8.29241 16.8672 8.43928C17.0712 8.58615 17.3108 8.67556 17.5612 8.6982L24.0954 9.28406C24.8347 9.39167 25.1296 10.2984 24.5936 10.8205L19.6715 14.9554C19.273 15.2902 19.0916 15.8162 19.2012 16.3244L20.632 23.022C20.7575 23.7573 19.9864 24.3192 19.3248 23.9705L13.6216 20.6307C13.4065 20.5044 13.1616 20.4379 12.9121 20.4379C12.6627 20.4379 12.4178 20.5044 12.2027 20.6307L6.49952 23.9685C5.83993 24.3153 5.06675 23.7553 5.19229 23.02L6.62307 16.3224C6.73068 15.8143 6.55133 15.2882 6.15279 14.9534L1.22874 10.8225C0.694684 10.3023 0.989609 9.39366 1.72692 9.28605L8.2611 8.70019C8.51145 8.67756 8.75114 8.58814 8.95514 8.44127C9.15914 8.2944 9.31998 8.09547 9.42087 7.86523L12.1031 1.74754C12.4359 1.07798 13.3884 1.07798 13.7192 1.74554Z" fill="#FDD835"/>
<path d="M13.5249 8.22866L13.0704 3.72022C13.0525 3.46909 13.0007 3.03857 13.4033 3.03857C13.7222 3.03857 13.8956 3.70228 13.8956 3.70228L15.2589 7.32179C15.7731 8.69903 15.5618 9.1714 15.0656 9.45044C14.4955 9.76934 13.6544 9.5202 13.5249 8.22866Z" fill="#FFFF8D"/>
<path d="M19.1464 14.5552L23.0569 11.5037C23.2502 11.3423 23.599 11.0852 23.32 10.7922C23.0988 10.561 22.5008 10.8938 22.5008 10.8938L19.0786 12.2312C18.0582 12.584 17.3805 13.1062 17.3207 13.7639C17.243 14.6409 18.0303 15.3165 19.1464 14.5552Z" fill="#F4B400"/>
</g>
<g clip-path="url(#clip1_33_68)">
<path d="M42.6269 1.74554L45.3091 7.86324C45.41 8.09348 45.5709 8.29241 45.7749 8.43928C45.9789 8.58615 46.2186 8.67556 46.4689 8.6982L53.0031 9.28406C53.7424 9.39167 54.0373 10.2984 53.5013 10.8205L48.5792 14.9554C48.1807 15.2902 47.9993 15.8162 48.1089 16.3244L49.5397 23.022C49.6653 23.7573 48.8941 24.3192 48.2325 23.9705L42.5293 20.6307C42.3142 20.5044 42.0693 20.4379 41.8199 20.4379C41.5704 20.4379 41.3255 20.5044 41.1104 20.6307L35.4072 23.9685C34.7476 24.3153 33.9745 23.7553 34.1 23.02L35.5308 16.3224C35.6384 15.8143 35.459 15.2882 35.0605 14.9534L30.1365 10.8225C29.6024 10.3023 29.8973 9.39366 30.6346 9.28605L37.1688 8.70019C37.4192 8.67756 37.6589 8.58814 37.8629 8.44127C38.0669 8.2944 38.2277 8.09547 38.3286 7.86523L41.0108 1.74754C41.3436 1.07798 42.2961 1.07798 42.6269 1.74554Z" fill="#FDD835"/>
<path d="M42.4321 8.22866L41.9777 3.72022C41.9597 3.46909 41.9079 3.03857 42.3105 3.03857C42.6294 3.03857 42.8028 3.70228 42.8028 3.70228L44.1661 7.32179C44.6803 8.69903 44.4691 9.1714 43.9728 9.45044C43.4027 9.76934 42.5616 9.5202 42.4321 8.22866Z" fill="#FFFF8D"/>
<path d="M48.0536 14.5552L51.9641 11.5037C52.1575 11.3423 52.5063 11.0852 52.2272 10.7922C52.006 10.561 51.4081 10.8938 51.4081 10.8938L47.9859 12.2312C46.9654 12.584 46.2877 13.1062 46.2279 13.7639C46.1502 14.6409 46.9375 15.3165 48.0536 14.5552Z" fill="#F4B400"/>
</g>
<path d="M71.5356 1.74554L74.2178 7.86324C74.3187 8.09348 74.4796 8.29241 74.6836 8.43928C74.8876 8.58615 75.1273 8.67556 75.3776 8.6982L81.9118 9.28406C82.6511 9.39167 82.946 10.2984 82.41 10.8205L77.4879 14.9554C77.0894 15.2902 76.908 15.8162 77.0176 16.3244L78.4484 23.022C78.574 23.7573 77.8028 24.3192 77.1412 23.9705L71.438 20.6307C71.2229 20.5044 70.978 20.4379 70.7286 20.4379C70.4791 20.4379 70.2342 20.5044 70.0191 20.6307L64.3159 23.9685C63.6563 24.3153 62.8832 23.7553 63.0087 23.02L64.4395 16.3224C64.5471 15.8143 64.3677 15.2882 63.9692 14.9534L59.0451 10.8225C58.5111 10.3023 58.806 9.39366 59.5433 9.28605L66.0775 8.70019C66.3279 8.67756 66.5675 8.58814 66.7715 8.44127C66.9755 8.2944 67.1364 8.09547 67.2373 7.86523L69.9195 1.74754C70.2523 1.07798 71.2048 1.07798 71.5356 1.74554Z" fill="#FDD835"/>
<path d="M71.3413 8.22866L70.8868 3.72022C70.8689 3.46909 70.8171 3.03857 71.2197 3.03857C71.5386 3.03857 71.712 3.70228 71.712 3.70228L73.0753 7.32179C73.5895 8.69903 73.3782 9.1714 72.882 9.45044C72.3119 9.76934 71.4708 9.5202 71.3413 8.22866Z" fill="#FFFF8D"/>
<path d="M76.9623 14.5552L80.8728 11.5037C81.0662 11.3423 81.415 11.0852 81.1359 10.7922C80.9147 10.561 80.3168 10.8938 80.3168 10.8938L76.8946 12.2312C75.8741 12.584 75.1964 13.1062 75.1366 13.7639C75.0589 14.6409 75.8462 15.3165 76.9623 14.5552Z" fill="#F4B400"/>
<path d="M100.443 1.74554L103.125 7.86324C103.226 8.09348 103.387 8.29241 103.591 8.43928C103.795 8.58615 104.034 8.67556 104.285 8.6982L110.819 9.28406C111.558 9.39167 111.853 10.2984 111.317 10.8205L106.395 14.9554C105.997 15.2902 105.815 15.8162 105.925 16.3244L107.356 23.022C107.481 23.7573 106.71 24.3192 106.048 23.9705L100.345 20.6307C100.13 20.5044 99.8852 20.4379 99.6358 20.4379C99.3864 20.4379 99.1415 20.5044 98.9264 20.6307L93.2232 23.9685C92.5636 24.3153 91.7904 23.7553 91.9159 23.02L93.3467 16.3224C93.4543 15.8143 93.275 15.2882 92.8764 14.9534L87.9524 10.8225C87.4183 10.3023 87.7132 9.39366 88.4506 9.28605L94.9847 8.70019C95.2351 8.67756 95.4748 8.58814 95.6788 8.44127C95.8828 8.2944 96.0436 8.09547 96.1445 7.86523L98.8267 1.74754C99.1595 1.07798 100.112 1.07798 100.443 1.74554Z" fill="#FDD835"/>
<path d="M100.248 8.22866L99.7936 3.72022C99.7756 3.46909 99.7238 3.03857 100.126 3.03857C100.445 3.03857 100.619 3.70228 100.619 3.70228L101.982 7.32179C102.496 8.69903 102.285 9.1714 101.789 9.45044C101.219 9.76934 100.378 9.5202 100.248 8.22866Z" fill="#FFFF8D"/>
<path d="M105.87 14.5552L109.78 11.5037C109.973 11.3423 110.322 11.0852 110.043 10.7922C109.822 10.561 109.224 10.8938 109.224 10.8938L105.802 12.2312C104.781 12.584 104.104 13.1062 104.044 13.7639C103.966 14.6409 104.753 15.3165 105.87 14.5552Z" fill="#F4B400"/>
<path d="M129.351 1.74554L132.033 7.86324C132.134 8.09348 132.295 8.29241 132.499 8.43928C132.703 8.58615 132.943 8.67556 133.193 8.6982L139.727 9.28406C140.467 9.39167 140.761 10.2984 140.225 10.8205L135.303 14.9554C134.905 15.2902 134.723 15.8162 134.833 16.3244L136.264 23.022C136.389 23.7573 135.618 24.3192 134.957 23.9705L129.253 20.6307C129.038 20.5044 128.793 20.4379 128.544 20.4379C128.295 20.4379 128.05 20.5044 127.835 20.6307L122.131 23.9685C121.472 24.3153 120.699 23.7553 120.824 23.02L122.255 16.3224C122.363 15.8143 122.183 15.2882 121.785 14.9534L116.861 10.8225C116.327 10.3023 116.621 9.39366 117.359 9.28605L123.893 8.70019C124.143 8.67756 124.383 8.58814 124.587 8.44127C124.791 8.2944 124.952 8.09547 125.053 7.86523L127.735 1.74754C128.068 1.07798 129.02 1.07798 129.351 1.74554Z" fill="#FDD835"/>
<path d="M129.156 8.22866L128.702 3.72022C128.684 3.46909 128.632 3.03857 129.035 3.03857C129.354 3.03857 129.527 3.70228 129.527 3.70228L130.89 7.32179C131.404 8.69903 131.193 9.1714 130.697 9.45044C130.127 9.76934 129.286 9.5202 129.156 8.22866Z" fill="#FFFF8D"/>
<path d="M134.777 14.5552L138.688 11.5037C138.881 11.3423 139.23 11.0852 138.951 10.7922C138.73 10.561 138.132 10.8938 138.132 10.8938L134.71 12.2312C133.689 12.584 133.011 13.1062 132.952 13.7639C132.874 14.6409 133.661 15.3165 134.777 14.5552Z" fill="#F4B400"/>
<defs>
<clipPath id="clip0_33_68">
<rect width="25.507" height="25.507" fill="white" transform="translate(0.15918 0.304199)"/>
</clipPath>
<clipPath id="clip1_33_68">
<rect width="25.507" height="25.507" fill="white" transform="translate(29.0669 0.304199)"/>
</clipPath>
</defs>
</svg>
