<svg width="38" height="31" viewBox="0 0 38 31" fill="none" xmlns="http://www.w3.org/2000/svg">
<path d="M29.0938 0H8.90625C3.98746 0 0 3.24339 0 7.24432V23.6648C0 27.6657 3.98746 30.9091 8.90625 30.9091H29.0938C34.0125 30.9091 38 27.6657 38 23.6648V7.24432C38 3.24339 34.0125 0 29.0938 0Z" fill="url(#paint0_radial_90_344)"/>
<path d="M29.0938 0H8.90625C3.98746 0 0 3.24339 0 7.24432V23.6648C0 27.6657 3.98746 30.9091 8.90625 30.9091H29.0938C34.0125 30.9091 38 27.6657 38 23.6648V7.24432C38 3.24339 34.0125 0 29.0938 0Z" fill="url(#paint1_radial_90_344)"/>
<path d="M19.0013 3.38086C14.9701 3.38086 14.464 3.39523 12.8808 3.45379C11.3005 3.51271 10.2219 3.71615 9.27809 4.01474C8.30166 4.3231 7.47353 4.73567 6.64852 5.40697C5.82276 6.07816 5.31555 6.75176 4.93525 7.54562C4.56713 8.31351 4.31671 9.19128 4.24561 10.4761C4.1748 11.764 4.15625 12.1757 4.15625 15.4548C4.15625 18.734 4.17406 19.1442 4.24591 20.432C4.31864 21.7174 4.56876 22.5948 4.93555 23.3625C5.31495 24.1567 5.82216 24.8303 6.64748 25.5014C7.47234 26.173 8.30048 26.5866 9.27616 26.8949C10.2207 27.1935 11.2995 27.397 12.8795 27.4559C14.4629 27.5144 14.9684 27.5288 18.9996 27.5288C23.0313 27.5288 23.5357 27.5144 25.1189 27.4559C26.6992 27.397 27.779 27.1935 28.7235 26.8949C29.6995 26.5866 30.5265 26.173 31.3512 25.5014C32.1769 24.8303 32.684 24.1567 33.0645 23.3629C33.4293 22.5948 33.6799 21.7172 33.7541 20.4323C33.8252 19.1445 33.8438 18.734 33.8438 15.4548C33.8438 12.1757 33.8252 11.7642 33.7541 10.4763C33.6799 9.19092 33.4293 8.31363 33.0645 7.54598C32.684 6.75176 32.1769 6.07816 31.3512 5.40697C30.5256 4.73543 29.6998 4.32286 28.7227 4.01486C27.7764 3.71615 26.6971 3.51259 25.1168 3.45379C23.5334 3.39523 23.0293 3.38086 18.9967 3.38086H19.0013ZM17.6697 5.55669C18.065 5.55621 18.506 5.55669 19.0013 5.55669C22.9648 5.55669 23.4344 5.56828 24.9995 5.62611C26.4468 5.67996 27.2323 5.87665 27.7556 6.04194C28.4483 6.26072 28.9422 6.52236 29.4614 6.94506C29.981 7.36765 30.3025 7.77007 30.5722 8.33356C30.7754 8.75856 31.0175 9.3975 31.0834 10.5747C31.1545 11.8475 31.1699 12.2298 31.1699 15.4521C31.1699 18.6743 31.1545 19.0567 31.0834 20.3294C31.0172 21.5066 30.7754 22.1456 30.5722 22.5707C30.3032 23.1342 29.981 23.5354 29.4614 23.9577C28.9419 24.3803 28.4486 24.6418 27.7556 24.8607C27.2329 25.0268 26.4468 25.223 24.9995 25.2768C23.4347 25.3346 22.9648 25.3472 19.0013 25.3472C15.0378 25.3472 14.568 25.3346 13.0033 25.2768C11.556 25.2225 10.7705 25.0258 10.2468 24.8605C9.55418 24.6416 9.05929 24.3801 8.53976 23.9575C8.02023 23.5349 7.69871 23.1334 7.429 22.5697C7.22579 22.1446 6.98369 21.5057 6.91778 20.3285C6.84668 19.0556 6.83243 18.6734 6.83243 15.449C6.83243 12.2248 6.84668 11.8445 6.91778 10.5717C6.98398 9.39449 7.22579 8.75554 7.429 8.32993C7.69812 7.76645 8.02023 7.36403 8.53991 6.94144C9.05944 6.51886 9.55418 6.25721 10.2469 6.03795C10.7702 5.87194 11.556 5.67574 13.0033 5.62165C14.3726 5.5713 14.9033 5.55621 17.6697 5.55367V5.55669ZM26.9249 7.56143C25.9415 7.56143 25.1437 8.2098 25.1437 9.00981C25.1437 9.80971 25.9415 10.4587 26.9249 10.4587C27.9083 10.4587 28.7062 9.80971 28.7062 9.00981C28.7062 8.20992 27.9083 7.56095 26.9249 7.56095V7.56143ZM19.0013 9.25431C14.7916 9.25431 11.3785 12.0306 11.3785 15.4548C11.3785 18.8791 14.7916 21.654 19.0013 21.654C23.2112 21.654 26.6232 18.8791 26.6232 15.4548C26.6232 12.0307 23.2109 9.25431 19.001 9.25431H19.0013ZM19.0013 11.4301C21.7339 11.4301 23.9494 13.2319 23.9494 15.4548C23.9494 17.6775 21.7339 19.4795 19.0013 19.4795C16.2686 19.4795 14.0535 17.6775 14.0535 15.4548C14.0535 13.2319 16.2686 11.4301 19.0013 11.4301Z" fill="white"/>
<defs>
<radialGradient id="paint0_radial_90_344" cx="0" cy="0" r="1" gradientUnits="userSpaceOnUse" gradientTransform="translate(10.0937 33.2897) rotate(-90) scale(30.6332 35.0275)">
<stop stop-color="#FFDD55"/>
<stop offset="0.1" stop-color="#FFDD55"/>
<stop offset="0.5" stop-color="#FF543E"/>
<stop offset="1" stop-color="#C837AB"/>
</radialGradient>
<radialGradient id="paint1_radial_90_344" cx="0" cy="0" r="1" gradientUnits="userSpaceOnUse" gradientTransform="translate(-6.36515 2.22654) rotate(76.1751) scale(13.8274 68.7191)">
<stop stop-color="#3771C8"/>
<stop offset="0.128" stop-color="#3771C8"/>
<stop offset="1" stop-color="#6600FF" stop-opacity="0"/>
</radialGradient>
</defs>
</svg>
