<svg width="35" height="29" viewBox="0 0 35 29" fill="none" xmlns="http://www.w3.org/2000/svg">
<path d="M26.7969 0.25293H8.20312C3.67266 0.25293 0 3.24026 0 6.92533V22.0494C0 25.7345 3.67266 28.7218 8.20312 28.7218H26.7969C31.3273 28.7218 35 25.7345 35 22.0494V6.92533C35 3.24026 31.3273 0.25293 26.7969 0.25293Z" fill="white"/>
<path d="M26.7969 0.25293H8.20312C3.67266 0.25293 0 3.24026 0 6.92533V22.0494C0 25.7345 3.67266 28.7218 8.20312 28.7218H26.7969C31.3273 28.7218 35 25.7345 35 22.0494V6.92533C35 3.24026 31.3273 0.25293 26.7969 0.25293Z" fill="#0A66C2"/>
<path d="M25.254 24.4607H29.2558C29.4008 24.4607 29.5399 24.4138 29.6424 24.3304C29.745 24.247 29.8026 24.1339 29.8026 24.016L29.8047 17.1387C29.8047 13.5442 28.8524 10.7813 23.6882 10.7813C21.725 10.7219 19.8737 11.545 18.8747 12.9195C18.8698 12.9262 18.8624 12.9314 18.8535 12.9343C18.8447 12.9372 18.8349 12.9377 18.8257 12.9357C18.8165 12.9337 18.8083 12.9292 18.8025 12.9231C18.7966 12.9169 18.7934 12.9094 18.7934 12.9016V11.5579C18.7934 11.44 18.7357 11.3268 18.6332 11.2434C18.5306 11.16 18.3915 11.1131 18.2465 11.1131H14.4488C14.3038 11.1131 14.1647 11.16 14.0621 11.2434C13.9596 11.3268 13.902 11.44 13.902 11.5579V24.0153C13.902 24.1333 13.9596 24.2464 14.0621 24.3298C14.1647 24.4132 14.3038 24.4601 14.4488 24.4601H18.4503C18.5954 24.4601 18.7345 24.4132 18.837 24.3298C18.9396 24.2464 18.9972 24.1333 18.9972 24.0153V17.8574C18.9972 16.1163 19.4033 14.4301 22.0571 14.4301C24.6732 14.4301 24.7071 16.4224 24.7071 17.9702V24.0158C24.7071 24.1338 24.7647 24.247 24.8673 24.3304C24.9699 24.4138 25.109 24.4607 25.254 24.4607ZM5.19531 6.88358C5.19531 8.20305 6.53064 9.28864 8.15281 9.28864C9.77457 9.28853 11.1091 8.20227 11.1091 6.88314C11.1088 5.564 9.77416 4.47852 8.15227 4.47852C6.52996 4.47852 5.19531 5.56423 5.19531 6.88358ZM6.14674 24.4607H10.1536C10.2986 24.4607 10.4377 24.4138 10.5403 24.3304C10.6428 24.247 10.7004 24.1338 10.7004 24.0158V11.5579C10.7004 11.44 10.6428 11.3268 10.5403 11.2434C10.4377 11.16 10.2986 11.1131 10.1536 11.1131H6.14674C6.0017 11.1131 5.8626 11.16 5.76004 11.2434C5.65748 11.3268 5.59986 11.44 5.59986 11.5579V24.0158C5.59986 24.1338 5.65748 24.247 5.76004 24.3304C5.8626 24.4138 6.0017 24.4607 6.14674 24.4607Z" fill="white"/>
</svg>
