<svg width="41" height="35" viewBox="0 0 41 35" fill="none" xmlns="http://www.w3.org/2000/svg">
<path d="M29.6518 0C25.8721 0 22.5628 1.61913 20.5 4.35598C18.4372 1.61913 15.1279 0 11.3482 0C8.33952 0.00337818 5.45503 1.1955 3.32756 3.31482C1.20009 5.43414 0.00339117 8.30758 0 11.3047C0 24.0682 18.9973 34.3993 19.8063 34.8259C20.0195 34.9402 20.2579 35 20.5 35C20.7421 35 20.9805 34.9402 21.1937 34.8259C22.0027 34.3993 41 24.0682 41 11.3047C40.9966 8.30758 39.7999 5.43414 37.6724 3.31482C35.545 1.1955 32.6605 0.00337818 29.6518 0ZM20.5 31.8721C17.1578 29.9321 2.92857 21.0943 2.92857 11.3047C2.93148 9.08116 3.81948 6.94948 5.39784 5.37716C6.9762 3.80485 9.11608 2.92025 11.3482 2.91735C14.9083 2.91735 17.8972 4.80634 19.1455 7.84039C19.2559 8.10793 19.4435 8.33675 19.6847 8.4978C19.9259 8.65884 20.2097 8.74482 20.5 8.74482C20.7903 8.74482 21.0741 8.65884 21.3153 8.4978C21.5565 8.33675 21.7441 8.10793 21.8545 7.84039C23.1028 4.80087 26.0917 2.91735 29.6518 2.91735C31.8839 2.92025 34.0238 3.80485 35.6022 5.37716C37.1805 6.94948 38.0685 9.08116 38.0714 11.3047C38.0714 21.0797 23.8386 29.9302 20.5 31.8721Z" fill="white" fill-opacity="0.7"/>
</svg>
