<svg width="21" height="46" viewBox="0 0 21 46" fill="none" xmlns="http://www.w3.org/2000/svg">
<g clip-path="url(#clip0_101_112)">
<path d="M1.47247 22.503C1.47054 22.3186 1.50785 22.1358 1.58199 21.9664C1.65613 21.797 1.76546 21.6448 1.90295 21.5195L14.7847 8.88828C15.3572 8.3269 16.243 8.32862 16.8133 8.89223C17.3836 9.45584 17.3819 10.3277 16.8094 10.8891L4.92955 22.5379L16.7354 34.2046C17.3058 34.7682 17.3041 35.6401 16.7315 36.2015C16.159 36.7629 15.2733 36.7612 14.703 36.1975L1.87049 23.5163C1.58533 23.2345 1.44318 22.8686 1.44384 22.5311L1.47247 22.503Z" fill="black"/>
</g>
<defs>
<clipPath id="clip0_101_112">
<rect width="45" height="20" fill="white" transform="translate(20.0876 0.0390625) rotate(90.1116)"/>
</clipPath>
</defs>
</svg>
