<svg width="18" height="14" viewBox="0 0 18 14" fill="none" xmlns="http://www.w3.org/2000/svg">
<path d="M0.292786 6.28094C0.105315 6.46847 0 6.72277 0 6.98794C0 7.2531 0.105315 7.50741 0.292786 7.69494L5.94979 13.3519C6.04203 13.4474 6.15238 13.5236 6.27438 13.576C6.39639 13.6284 6.52761 13.656 6.66039 13.6572C6.79316 13.6583 6.92484 13.633 7.04774 13.5828C7.17064 13.5325 7.28229 13.4582 7.37618 13.3643C7.47007 13.2704 7.54433 13.1588 7.59461 13.0359C7.64489 12.913 7.67019 12.7813 7.66904 12.6485C7.66788 12.5158 7.6403 12.3845 7.58789 12.2625C7.53548 12.1405 7.4593 12.0302 7.36379 11.9379L3.41379 7.98794L16.6568 7.98794C16.922 7.98794 17.1764 7.88258 17.3639 7.69504C17.5514 7.50751 17.6568 7.25315 17.6568 6.98794C17.6568 6.72272 17.5514 6.46837 17.3639 6.28083C17.1764 6.0933 16.922 5.98794 16.6568 5.98794L3.41379 5.98794L7.36379 2.03794C7.54594 1.84933 7.64674 1.59673 7.64446 1.33454C7.64218 1.07234 7.53701 0.821527 7.3516 0.63612C7.1662 0.450712 6.91538 0.345542 6.65319 0.343264C6.39099 0.340985 6.13839 0.441779 5.94979 0.623938L0.292786 6.28094Z" fill="#116A7B"/>
</svg>
