<svg width="46" height="46" viewBox="0 0 46 46" fill="none" xmlns="http://www.w3.org/2000/svg">
<path d="M23.1342 35.6059L27.7476 31.0021L23.1322 26.3982L21.9305 27.6L24.5812 30.2507C23.0977 30.2584 21.7791 30.084 20.6252 29.7275C19.4714 29.3697 18.5469 28.8433 17.8518 28.1482C17.1388 27.4364 16.6022 26.6282 16.2418 25.7236C15.8815 24.8189 15.7013 23.9149 15.7013 23.0115C15.7013 22.4684 15.7614 21.9254 15.8815 21.3823C16.0016 20.8393 16.1767 20.3243 16.4067 19.8375L15.1091 18.6875C14.7385 19.3634 14.4619 20.0637 14.2792 20.7882C14.0964 21.5127 14.0057 22.2499 14.007 23C14.007 24.1385 14.2281 25.2623 14.6702 26.3714C15.1123 27.4805 15.7659 28.474 16.6309 29.3518C17.496 30.2297 18.6326 30.8813 20.0407 31.3068C21.4488 31.7323 22.8946 31.9489 24.3781 31.9566L21.9305 34.4042L23.1342 35.6059ZM30.9292 27.3125C31.2998 26.6366 31.5758 25.9363 31.7572 25.2118C31.9387 24.4873 32.0301 23.7501 32.0313 23C32.0313 21.8653 31.8116 20.7377 31.372 19.6171C30.9324 18.4965 30.2744 17.5036 29.3978 16.6386C28.5456 15.7607 27.4115 15.111 25.9957 14.6893C24.5787 14.2664 23.1329 14.0549 21.6583 14.0549L24.1059 11.5958L22.9042 10.3941L18.2888 14.9979L22.9042 19.6018L24.1059 18.4L21.4456 15.7397C22.9214 15.7397 24.242 15.9192 25.4073 16.2782C26.5727 16.6373 27.5023 17.1663 28.1961 17.8652C28.8899 18.5642 29.4202 19.366 29.7869 20.2707C30.1536 21.1753 30.3364 22.0813 30.3351 22.9885C30.3351 23.5316 30.2757 24.0746 30.1568 24.6177C30.038 25.1607 29.8629 25.6757 29.6317 26.1625L30.9292 27.3125ZM23.0058 40.25C20.6214 40.25 18.3789 39.7977 16.2782 38.893C14.1789 37.9871 12.3523 36.7578 10.7985 35.2053C9.24472 33.6528 8.01486 31.8282 7.10892 29.7313C6.20297 27.6345 5.75 25.3926 5.75 23.0058C5.75 20.6189 6.20297 18.3764 7.10892 16.2782C8.01358 14.1789 9.24089 12.3523 10.7908 10.7985C12.3408 9.24472 14.1661 8.01486 16.2668 7.10892C18.3674 6.20297 20.6099 5.75 22.9942 5.75C25.3786 5.75 27.6211 6.20297 29.7218 7.10892C31.8211 8.01358 33.6477 9.24153 35.2015 10.7927C36.7553 12.344 37.9851 14.1693 38.8911 16.2687C39.797 18.3681 40.25 20.6099 40.25 22.9942C40.25 25.3786 39.7977 27.6211 38.893 29.7218C37.9883 31.8224 36.7591 33.649 35.2053 35.2015C33.6516 36.754 31.8269 37.9839 29.7313 38.8911C27.6358 39.7983 25.3939 40.2513 23.0058 40.25ZM23 38.3333C27.2806 38.3333 30.9062 36.8479 33.8771 33.8771C36.8479 30.9062 38.3333 27.2806 38.3333 23C38.3333 18.7194 36.8479 15.0937 33.8771 12.1229C30.9062 9.15208 27.2806 7.66667 23 7.66667C18.7194 7.66667 15.0937 9.15208 12.1229 12.1229C9.15208 15.0937 7.66667 18.7194 7.66667 23C7.66667 27.2806 9.15208 30.9062 12.1229 33.8771C15.0937 36.8479 18.7194 38.3333 23 38.3333Z" fill="black" fill-opacity="0.35"/>
</svg>
