<svg width="21" height="46" viewBox="0 0 21 46" fill="none" xmlns="http://www.w3.org/2000/svg">
<g clip-path="url(#clip0_101_115)">
<path d="M18.6495 22.505C18.6525 22.6894 18.6161 22.8724 18.5429 23.0422C18.4697 23.212 18.3612 23.3648 18.2244 23.4909L5.41123 36.1917C4.84176 36.7561 3.95605 36.7592 3.38267 36.1987C2.80929 35.6382 2.80627 34.7663 3.37574 34.2018L15.1923 22.4889L3.32339 10.8863C2.75002 10.3258 2.74699 9.45388 3.31646 8.8894C3.88594 8.32492 4.77165 8.32185 5.34502 8.88236L18.246 21.4939C18.5327 21.7742 18.6768 22.1393 18.678 22.4768L18.6495 22.505Z" fill="black"/>
</g>
<defs>
<clipPath id="clip0_101_115">
<rect width="45" height="20" fill="white" transform="translate(0.15625 45.0693) rotate(-90.1988)"/>
</clipPath>
</defs>
</svg>
