<svg width="37" height="37" viewBox="0 0 37 37" fill="none" xmlns="http://www.w3.org/2000/svg">
<path d="M32.3748 32.3748L25.6794 25.6794M25.6794 25.6794C26.8246 24.5341 27.7331 23.1744 28.353 21.6781C28.9728 20.1817 29.2918 18.5778 29.2918 16.9582C29.2918 15.3385 28.9728 13.7347 28.353 12.2383C27.7331 10.7419 26.8246 9.38224 25.6794 8.23696C24.5341 7.09167 23.1744 6.18318 21.678 5.56336C20.1817 4.94353 18.5778 4.62451 16.9582 4.62451C15.3385 4.62451 13.7347 4.94353 12.2383 5.56336C10.7419 6.18318 9.38224 7.09167 8.23695 8.23696C5.92395 10.55 4.62451 13.6871 4.62451 16.9582C4.62451 20.2293 5.92395 23.3664 8.23695 25.6794C10.55 27.9924 13.6871 29.2918 16.9582 29.2918C20.2292 29.2918 23.3664 27.9924 25.6794 25.6794Z" stroke="white" stroke-width="1.5" stroke-linecap="round" stroke-linejoin="round"/>
</svg>
