<svg width="31" height="31" viewBox="0 0 31 31" fill="none" xmlns="http://www.w3.org/2000/svg">
<g clip-path="url(#clip0_89_36)">
<path d="M15.4891 16.3882C16.405 16.3882 17.312 16.2077 18.1583 15.8572C19.0045 15.5067 19.7735 14.9929 20.4211 14.3452C21.0688 13.6975 21.5826 12.9286 21.9331 12.0824C22.2837 11.2361 22.4641 10.3291 22.4641 9.41315C22.4641 8.49718 22.2837 7.59018 21.9331 6.74393C21.5826 5.89769 21.0688 5.12877 20.4211 4.48108C19.7735 3.83339 19.0045 3.31962 18.1583 2.96909C17.312 2.61856 16.405 2.43815 15.4891 2.43815C13.6392 2.43815 11.8651 3.17301 10.557 4.48108C9.24893 5.78915 8.51407 7.56327 8.51407 9.41315C8.51407 11.263 9.24893 13.0372 10.557 14.3452C11.8651 15.6533 13.6392 16.3882 15.4891 16.3882ZM15.4999 4.93748e-07C17.5416 -0.000664565 19.5267 0.670543 21.1491 1.91006C22.7714 3.14958 23.9408 4.88852 24.4768 6.85858C25.0127 8.82864 24.8855 10.9203 24.1148 12.8109C23.344 14.7015 21.9725 16.2859 20.2119 17.3197C25.9283 19.0402 30.2218 23.8576 30.9922 29.8406C31.065 30.4095 30.6419 30.9256 30.0467 30.9954C29.453 31.0651 28.9105 30.6621 28.8377 30.0933C28.0007 23.5988 22.3757 18.7085 15.5542 18.7085C8.69542 18.7085 2.99762 23.6081 2.16217 30.0933C2.08932 30.6621 1.54682 31.0651 0.95317 30.9954C0.35797 30.9256 -0.0651802 30.4095 0.00766975 29.8406C0.77647 23.8824 5.09322 19.0712 10.8189 17.3352C9.05298 16.3061 7.67524 14.7239 6.89872 12.8333C6.12219 10.9426 5.99014 8.8488 6.52297 6.87557C7.0558 4.90233 8.22383 3.15959 9.84648 1.91678C11.4691 0.673968 13.456 0.000324356 15.4999 4.93748e-07Z" fill="white" fill-opacity="0.7"/>
</g>
<defs>
<clipPath id="clip0_89_36">
<rect width="31" height="31" fill="white"/>
</clipPath>
</defs>
</svg>
