<svg width="30" height="25" viewBox="0 0 30 25" fill="none" xmlns="http://www.w3.org/2000/svg">
<path d="M2.30368 9.81735L1.15184 10.9692L0 9.81735L1.15184 8.66551L2.30368 9.81735ZM30 22.8509C30 23.283 29.8284 23.6974 29.5228 24.0029C29.2173 24.3085 28.8029 24.4801 28.3708 24.4801C27.9387 24.4801 27.5243 24.3085 27.2188 24.0029C26.9133 23.6974 26.7416 23.283 26.7416 22.8509H30ZM9.29782 19.1152L1.15184 10.9692L3.45552 8.66551L11.6015 16.8115L9.29782 19.1152ZM1.15184 8.66551L9.29782 0.519531L11.6015 2.82321L3.45552 10.9692L1.15184 8.66551ZM2.30368 8.18815H18.5956V11.4465H2.30368V8.18815ZM30 19.5925V22.8509H26.7416V19.5925H30ZM18.5956 8.18815C21.6203 8.18815 24.521 9.38968 26.6597 11.5284C28.7985 13.6671 30 16.5679 30 19.5925H26.7416C26.7416 17.4321 25.8834 15.3601 24.3557 13.8324C22.828 12.3048 20.7561 11.4465 18.5956 11.4465V8.18815Z" fill="black" fill-opacity="0.5"/>
</svg>
