<svg width="37" height="25" viewBox="0 0 37 25" fill="none" xmlns="http://www.w3.org/2000/svg">
<path d="M33.2121 6.32761C33.2347 6.59249 33.2347 6.85713 33.2347 7.12436C33.2347 15.2655 25.5985 24.6548 11.6359 24.6548V24.6501C7.51103 24.6548 3.47162 23.6959 0 21.8878C0.599805 21.9464 1.2025 21.9758 1.80664 21.9769C5.22541 21.9791 8.54585 21.0485 11.2344 19.3345C9.65034 19.3102 8.11522 18.8847 6.84368 18.1176C5.57214 17.3504 4.62775 16.2799 4.14255 15.0558C5.28059 15.2341 6.45303 15.1972 7.56997 14.9495C4.02838 14.3688 1.48058 11.8434 1.48058 8.91049V8.83236C2.53632 9.30973 3.71794 9.57421 4.92591 9.60354C1.58984 7.79419 0.562227 4.1926 2.57641 1.37698C4.48217 3.28034 6.85991 4.83703 9.5552 5.94595C12.2505 7.05488 15.203 7.69122 18.2211 7.81366C17.9202 6.76229 17.9648 5.66525 18.3502 4.63223C18.7356 3.59922 19.4484 2.66643 20.4174 1.92716C23.4748 -0.405625 28.2833 -0.285971 31.1572 2.19438C32.8572 1.92193 34.4875 1.41604 35.9779 0.698476C35.4112 2.1251 34.2253 3.33611 32.6409 4.10627C34.1457 3.96227 35.6152 3.63522 37 3.13613C35.9813 4.37434 34.6986 5.4551 33.2121 6.32761Z" fill="#1D9BF0"/>
</svg>
