<svg width="35" height="25" viewBox="0 0 35 25" fill="none" xmlns="http://www.w3.org/2000/svg">
<path d="M0.15625 5.56234H15.1875L16.3438 7.87483H1.3125L0.15625 5.56234ZM1.69792 10.1873H16.7292L17.8854 12.4998H2.85417L1.69792 10.1873ZM26.75 22.5207C28.0296 22.5207 29.0625 21.4877 29.0625 20.2082C29.0625 18.9286 28.0296 17.8957 26.75 17.8957C25.4704 17.8957 24.4375 18.9286 24.4375 20.2082C24.4375 21.4877 25.4704 22.5207 26.75 22.5207ZM29.0625 8.64567H25.2083V12.4998H32.0842L29.0625 8.64567ZM11.3333 22.5207C12.6129 22.5207 13.6458 21.4877 13.6458 20.2082C13.6458 18.9286 12.6129 17.8957 11.3333 17.8957C10.0538 17.8957 9.02083 18.9286 9.02083 20.2082C9.02083 21.4877 10.0538 22.5207 11.3333 22.5207ZM29.8333 6.33317L34.4583 12.4998V20.2082H31.375C31.375 22.7673 29.3092 24.8332 26.75 24.8332C24.1908 24.8332 22.125 22.7673 22.125 20.2082H15.9583C15.9583 22.7673 13.8771 24.8332 11.3333 24.8332C8.77417 24.8332 6.70833 22.7673 6.70833 20.2082H3.625V14.8123H6.70833V17.1248H7.88C8.72792 16.1844 9.96125 15.5832 11.3333 15.5832C12.7054 15.5832 13.9388 16.1844 14.7867 17.1248H22.125V3.24984H3.625C3.625 1.53859 4.99708 0.166504 6.70833 0.166504H25.2083V6.33317H29.8333Z" fill="white" fill-opacity="0.56"/>
</svg>
